<svg xmlns="http://www.w3.org/2000/svg" version="1.1" xmlns:xlink="http://www.w3.org/1999/xlink" xmlns:svgjs="http://svgjs.dev/svgjs" width="1500" height="1500" viewBox="0 0 1500 1500"><rect width="1500" height="1500" fill="#ffffff"></rect><g transform="matrix(0.6666666666666666,0,0,0.6666666666666666,249.39393939393938,585.4282927605428)"><svg viewBox="0 0 396 130" data-background-color="#ffffff" preserveAspectRatio="xMidYMid meet" height="492" width="1500" xmlns="http://www.w3.org/2000/svg" xmlns:xlink="http://www.w3.org/1999/xlink"><g id="tight-bounds" transform="matrix(1,0,0,1,0.2400000000000091,0.22659128393121364)"><svg viewBox="0 0 395.52 129.54681743213757" height="129.54681743213757" width="395.52"><g><svg viewBox="0 0 410.30529687499995 134.38952615722246" height="129.54681743213757" width="395.52"><g><svg viewBox="0 0 410.30529687499995 134.38952615722246" height="134.38952615722246" width="410.30529687499995"><g id="textblocktransform"><svg viewBox="0 0 410.30529687499995 134.38952615722246" height="134.38952615722246" width="410.30529687499995" id="textblock"><g><svg viewBox="0 0 410.30529687499995 84.957640625" height="84.957640625" width="410.30529687499995"><g><svg><g></g><g></g></svg></g><g><svg><g><svg></svg></g><g></g></svg></g><g id="text-0"><svg viewBox="0 0 410.30529687499995 84.957640625" height="84.957640625" width="410.30529687499995"><g transform="matrix(1,0,0,1,0,0)"><svg width="302.199421875" viewBox="0.17 -34.86 179.57000000000002 50.49" height="84.957640625" data-palette-color="#067627"><path d="M0.17-0.2L0.17-0.2 0.17-0.88Q0.17-1.07 0.37-1.07L0.37-1.07 0.9-1.07Q1.93-1.15 3-1.16 4.08-1.17 4.96-1.42L4.96-1.42Q6.96-2 6.96-4.35L6.96-4.35 6.96-30.08Q6.96-32.5 4.1-33.15L4.1-33.15Q3.3-33.33 2.47-33.45L2.47-33.45 1.95-33.45Q1.76-33.45 1.76-33.64L1.76-33.64 1.76-34.23Q1.76-34.42 1.95-34.42L1.95-34.42 25.17-34.42Q25.61-34.42 25.81-34.27 26-34.11 26.05-33.57L26.05-33.57 26.49-26.49Q26.49-26.25 26.12-26.25 25.76-26.25 25.59-26.46L25.59-26.46Q25.44-26.71 25.21-28.25 24.98-29.79 24.37-30.81 23.75-31.84 22.22-32.1L22.22-32.1 12.04-32.1Q11.72-32.1 11.72-31.79L11.72-31.79 11.72-19.17Q11.72-18.92 11.96-18.92L11.96-18.92 20.41-18.92Q23.68-18.92 23.68-22.73L23.68-22.73Q23.68-22.92 23.88-22.92L23.88-22.92 24.46-22.92Q24.66-22.92 24.66-22.73L24.66-22.73 24.66-12.28Q24.66-12.08 24.46-12.08L24.46-12.08 23.88-12.08Q23.68-12.08 23.68-12.28L23.68-12.28Q23.68-15.89 21.58-16.46L21.58-16.46Q21-16.6 20.34-16.6L20.34-16.6 11.96-16.6Q11.72-16.6 11.72-16.36L11.72-16.36 11.72-4.47Q11.72-2.64 13.4-2.39L13.4-2.39Q13.89-2.32 14.43-2.32L14.43-2.32 22.56-2.32Q25.07-2.32 26.46-4.54L26.46-4.54Q27.47-6.13 27.69-8.18L27.69-8.18Q27.76-8.86 28.42-8.86L28.42-8.86Q28.71-8.86 28.71-8.54L28.71-8.54 27.91-0.34Q27.76 0 27.56 0L27.56 0 0.37 0Q0.17 0 0.17-0.2ZM47.65-4.03Q47.65-3.39 48.25-3.02 48.85-2.64 49.63-2.64 50.41-2.64 50.94-3.04 51.46-3.44 51.66-3.44 51.85-3.44 51.85-2.92 51.85-2.39 51.36-2.03L51.36-2.03Q47.7 0.66 46.41 0.66L46.41 0.66Q44.85 0.66 43.87-2.59L43.87-2.59Q43.8-2.83 43.75-2.81L43.75-2.81Q40.72-0.54 39.94-0.07L39.94-0.07Q37.94 1.07 35.92 0.29 33.91-0.49 33.01-2.29L33.01-2.29Q32.57-3.22 32.57-4.27L32.57-4.27Q32.57-6.35 34.1-7.57 35.64-8.79 39.96-9.91L39.96-9.91Q41.43-10.3 42.58-10.91 43.72-11.52 43.78-11.69 43.85-11.87 43.85-12.01L43.85-12.01 43.85-16.7Q43.85-19.46 41.7-20.58L41.7-20.58Q40.99-20.95 40-20.95 39.01-20.95 38-20.17 36.98-19.38 36.98-17.94L36.98-17.94 37.11-16.99Q36.96-16.7 35.35-16.02 33.74-15.33 33.49-15.28L33.49-15.28Q33.1-15.28 33.1-16.22 33.1-17.16 33.66-18.31 34.23-19.46 35.25-20.41L35.25-20.41Q37.64-22.63 40.72-22.63 43.8-22.63 45.73-20.94 47.65-19.24 47.65-16.89L47.65-16.89 47.65-4.03ZM36.4-4.74Q36.4-3.56 37.3-2.7 38.21-1.83 39.37-1.83 40.52-1.83 42.19-2.82 43.85-3.81 43.85-4.86L43.85-4.86 43.85-9.81Q43.85-10.08 43.72-10.08 43.6-10.08 43.55-10.06L43.55-10.06 37.89-7.42Q37.01-6.79 36.7-6.35 36.4-5.91 36.4-4.74ZM66.01-18.95L66.01-16.7Q66.01-16.16 65.61-16.16 65.2-16.16 64.99-16.75L64.99-16.75Q64.4-18.36 63.24-19.6 62.08-20.85 60.37-20.85L60.37-20.85Q58.12-20.85 57.34-18.6L57.34-18.6Q57.1-17.85 57.1-17.04 57.1-16.24 58.12-15.25 59.15-14.26 61.49-12.89 63.84-11.52 64.91-10.57L64.91-10.57Q67.35-8.4 67.35-5.54 67.35-2.69 65.25-1.01 63.15 0.66 60.37 0.66L60.37 0.66Q58.88 0.66 57.67 0.26 56.46-0.15 56.28-0.15 56.1-0.15 55.7 0.26 55.29 0.66 55.05 0.66L55.05 0.66 54.63 0.66Q54.49 0.66 54.27-1.98 54.05-4.61 54.05-5.1 54.05-5.59 54.13-5.64 54.22-5.69 54.41-5.69 54.61-5.69 54.74-5.57 54.88-5.44 54.98-5.26 55.07-5.08 55.13-4.88 55.2-4.69 55.44-4.15L55.44-4.15Q57.1-0.61 60.57-0.61L60.57-0.61Q62.1-0.61 63.03-1.75 63.96-2.88 63.96-4.27 63.96-5.66 63.23-6.62 62.5-7.57 61.41-8.35 60.32-9.13 59.05-9.86L59.05-9.86Q54.12-12.74 54.12-16.24L54.12-16.24Q54.12-18.85 56.37-20.74 58.61-22.63 60.98-22.63 63.35-22.63 64.48-22.12 65.62-21.61 65.82-21.25 66.01-20.9 66.01-18.95L66.01-18.95ZM85.47-21.97L94.72-21.97Q94.99-21.9 94.99-21.63 94.99-21.36 94.94-21.28 94.89-21.19 94.71-21.13 94.52-21.07 94.19-21.02 93.86-20.97 93.16-20.84 92.45-20.7 91.89-19.85 91.33-18.99 90.69-17.48L90.69-17.48 79.22 10.96 77.63 14.33Q77.02 15.63 75.07 15.63L75.07 15.63Q74.21 15.63 73.7 15.06 73.19 14.5 73.19 13.73 73.19 12.96 73.56 12.61 73.94 12.26 74.46 12.04 74.97 11.82 75.52 11.63 76.07 11.45 76.75 10.8 77.43 10.16 77.56 9.84L77.56 9.84Q81.66 0.66 81.66 0.24 81.66-0.17 81.17-0.78L81.17-0.78 73.11-17.6Q72.21-20.07 70.01-20.78L70.01-20.78Q69.84-20.83 69.6-20.85L69.6-20.85Q68.57-20.95 68.57-21.46 68.57-21.97 69.16-21.97L69.16-21.97 80.02-21.97Q80.22-21.97 80.22-21.59 80.22-21.22 79.88-21.08 79.53-20.95 78.36-20.95L78.36-20.95Q76.48-20.95 76.48-19.48L76.48-19.48 76.7-18.9 83.02-5.35Q83.51-4.1 84-5.42L84-5.42Q84.05-5.54 84.61-7.01L84.61-7.01Q87.93-15.43 88.33-16.75 88.74-18.07 88.74-18.73 88.74-19.38 88.04-20.12 87.35-20.85 86.14-20.85 84.93-20.85 84.93-21.56L84.93-21.56Q84.93-21.97 85.47-21.97L85.47-21.97ZM113.66 0L96.03 0Q95.84 0 95.84-0.2L95.84-0.2 95.84-0.78Q95.84-0.98 96.18-0.98L96.18-0.98Q97.33-0.98 98.72-1.22L98.72-1.22Q103.19-1.98 103.19-4.3L103.19-4.3 103.19-30.05Q102.94-33.18 100.33-33.45L100.33-33.45Q99.55-33.54 98.6-33.54L98.6-33.54 97.21-33.54Q97.01-33.54 97.01-33.74L97.01-33.74 97.01-34.35Q97.01-34.55 97.21-34.55L97.21-34.55 98.28-34.57 102.48-34.59 111.17-34.86Q125.14-34.86 125.14-26.61L125.14-26.61Q125.14-23.12 121.52-20.8L121.52-20.8Q120.96-20.43 120.56-20.26 120.16-20.09 120.11-20.07L120.11-20.07Q123.33-18.26 125.17-16.02 127.02-13.77 127.02-10.64L127.02-10.64Q127.02-3.98 120.72-1.37L120.72-1.37Q117.47 0 113.66 0L113.66 0ZM112.27-19.04L108.39-19.04Q108.07-19.04 108.07-18.77L108.07-18.77 108.07-5.4Q108.07-3.66 109.69-2.61 111.32-1.56 113.2-1.56L113.2-1.56Q116.81-1.56 119.35-4.14 121.89-6.71 121.89-10.49 121.89-14.26 119.17-16.65 116.45-19.04 112.27-19.04L112.27-19.04ZM108.02-32.2L108.02-21.02Q108.02-20.56 108.58-20.56L108.58-20.56 114.59-20.56Q116.93-20.56 118.53-22.29 120.13-24.02 120.13-26.17L120.13-26.17Q120.13-30 117.96-31.73 115.79-33.45 112.17-33.45L112.17-33.45Q111.07-33.37 110.65-33.37 110.22-33.37 109.76-33.39 109.29-33.4 108.83-33.33 108.36-33.25 108.19-33.01 108.02-32.76 108.02-32.2L108.02-32.2ZM142.18 0L131.29 0Q131.04-0.05 131.04-0.34L131.04-0.34Q131.04-0.78 132.19-0.93L132.19-0.93Q134.83-1.32 134.83-3.71L134.83-3.71 134.83-16.63Q134.83-17.65 133.7-18.04L133.7-18.04Q133.22-18.21 132.65-18.32 132.09-18.43 131.76-18.53 131.43-18.63 131.35-18.71 131.26-18.8 131.26-19.08 131.26-19.36 131.63-19.56L131.63-19.56 137.85-22.49Q138.15-22.63 138.22-22.63L138.22-22.63Q138.63-22.63 138.63-22.05L138.63-22.05 138.63-3.71Q138.63-1.32 141.27-0.93L141.27-0.93Q142.42-0.78 142.42-0.42 142.42-0.05 142.18 0L142.18 0ZM136.38-29.49Q135.36-29.49 134.59-30.13 133.83-30.76 133.83-31.9 133.83-33.03 134.56-33.69 135.29-34.35 136.3-34.35 137.32-34.35 138.01-33.57 138.71-32.79 138.71-31.88 138.71-30.98 138.05-30.24 137.39-29.49 136.38-29.49ZM158.63-18.77L151.28-18.77Q151.13-18.77 151.13-18.55L151.13-18.55 151.13-5.08Q151.13-3.61 151.78-2.78 152.43-1.95 153.43-1.95 154.43-1.95 155.17-2.28 155.92-2.61 156.47-3 157.02-3.39 157.46-3.72 157.9-4.05 158.24-4.05 158.58-4.05 158.58-3.88L158.58-3.88Q158.58-3.3 158.46-3.13L158.46-3.13Q155.53 0.66 152.8 0.66 150.08 0.66 148.7-1.06 147.32-2.78 147.32-5.18L147.32-5.18 147.32-18.77 145.49-18.77Q144.81-18.77 144.77-19.21 144.74-19.65 144.91-19.78L144.91-19.78Q146.2-20.61 148.47-22.75L148.47-22.75Q148.72-23.02 149.13-23.56 149.55-24.1 150.34-25.02 151.13-25.95 151.55-25.95 151.96-25.95 151.96-25.61L151.96-25.61Q151.96-25.56 151.13-22.41L151.13-22.41Q151.13-21.97 151.52-21.95L151.52-21.95 157.75-21.95Q158.82-21.95 158.82-18.92L158.82-18.92Q158.82-18.77 158.63-18.77L158.63-18.77ZM179.23-12.87L165.07-12.87Q164.66-12.87 164.66-11.08L164.66-11.08Q164.66-7.3 166.9-4.74 169.15-2.17 172.48-2.17 175.81-2.17 178.89-5.05L178.89-5.05Q178.94-5.1 179.01-5.1L179.01-5.1 179.13-5.1Q179.28-5.1 179.41-4.87 179.55-4.64 179.67-4.57L179.67-4.57Q176.84-1.12 173 0.2L173 0.2Q171.69 0.66 170.03 0.66 168.37 0.66 166.66-0.26 164.95-1.17 163.73-2.66L163.73-2.66Q161.14-5.76 161.14-10.39 161.14-15.01 163.96-18.82 166.78-22.63 171.71-22.63L171.71-22.63Q175.25-22.63 177.5-19.47 179.74-16.31 179.74-13.92L179.74-13.92Q179.74-12.87 179.23-12.87L179.23-12.87ZM165.34-15.5L165.34-15.21Q165.34-14.75 165.78-14.75L165.78-14.75 174.98-14.75Q175.62-14.75 175.62-15.5L175.62-15.5Q175.62-17.26 174.04-19.1 172.47-20.95 170.59-20.95L170.59-20.95Q168.76-20.95 167.26-19.29 165.75-17.63 165.34-15.5L165.34-15.5Z" opacity="1" transform="matrix(1,0,0,1,0,0)" fill="#067627" class="wordmark-text-0" data-fill-palette-color="primary"></path></svg></g><g><svg xmlns="http://www.w3.org/2000/svg" xmlns:xlink="http://www.w3.org/1999/xlink" version="1.1" x="321.4859453125" y="0" viewBox="26 36 460 440" style="enable-background:new 0 0 512 512;" xml:space="preserve" height="84.957640625" width="88.81935156249999" class="icon-dxe-0" data-fill-palette-color="accent" id="dxe-0"><g fill="#e9de2f" data-fill-palette-color="accent"><g fill="#e9de2f" data-fill-palette-color="accent"><g fill="#e9de2f" data-fill-palette-color="accent"><g fill="#e9de2f" data-fill-palette-color="accent"><path d="M266 471C208.571 471 154.58 448.636 113.972 408.027 73.364 367.42 51 313.429 51 256S73.364 144.58 113.972 103.972 208.571 41 266 41C269.722 41 273.531 41.1 277.323 41.296A5 5 0 0 1 281.958 45.265C286.118 65.143 303.193 79.808 323.483 80.926A4.999 4.999 0 0 1 326.509 89.673C310.298 103.929 301 124.459 301 146 301 187.355 334.645 221 376 221A74.6 74.6 0 0 0 404.376 215.429 5 5 0 0 1 411.252 220.476 65 65 0 0 0 411 226C411 260.548 437.999 289.056 472.467 290.9A5 5 0 0 1 477.11 296.837C457.699 397.754 368.915 471 266 471M266 51C152.962 51 61 142.962 61 256S152.962 461 266 461C362.278 461 445.587 393.768 466.174 300.357 429.598 295.582 401.62 264.608 401.01 227.246A84.6 84.6 0 0 1 376 231C329.131 231 291 192.869 291 146 291 125.008 298.79 104.862 312.65 89.359 293.771 84.641 278.526 70.123 273.11 51.123A210 210 0 0 0 266 51" fill="#e9de2f" data-fill-palette-color="accent"></path></g><g fill="#e9de2f" data-fill-palette-color="accent"><path d="M106 281C92.215 281 81 269.785 81 256S92.215 231 106 231 131 242.215 131 256 119.785 281 106 281M106 241C97.729 241 91 247.729 91 256S97.729 271 106 271 121 264.271 121 256 114.271 241 106 241" fill="#e9de2f" data-fill-palette-color="accent"></path></g><g fill="#e9de2f" data-fill-palette-color="accent"><path d="M236 401C211.187 401 191 380.813 191 356S211.187 311 236 311 281 331.187 281 356 260.813 401 236 401M236 321C216.701 321 201 336.701 201 356S216.701 391 236 391 271 375.299 271 356 255.299 321 236 321" fill="#e9de2f" data-fill-palette-color="accent"></path></g><g fill="#e9de2f" data-fill-palette-color="accent"><path d="M216 241C202.215 241 191 229.785 191 216S202.215 191 216 191 241 202.215 241 216 229.785 241 216 241M216 201C207.729 201 201 207.729 201 216S207.729 231 216 231 231 224.271 231 216 224.271 201 216 201" fill="#e9de2f" data-fill-palette-color="accent"></path></g><g fill="#e9de2f" data-fill-palette-color="accent"><path d="M371 381C354.458 381 341 367.542 341 351S354.458 321 371 321 401 334.458 401 351 387.542 381 371 381M371 331C359.972 331 351 339.972 351 351S359.972 371 371 371 391 362.028 391 351 382.028 331 371 331" fill="#e9de2f" data-fill-palette-color="accent"></path></g><g fill="#e9de2f" data-fill-palette-color="accent"><path d="M426 151C406.701 151 391 135.299 391 116S406.701 81 426 81 461 96.701 461 116 445.299 151 426 151M426 91C412.215 91 401 102.215 401 116S412.215 141 426 141 451 129.785 451 116 439.785 91 426 91" fill="#e9de2f" data-fill-palette-color="accent"></path></g><g fill="#e9de2f" data-fill-palette-color="accent"><path d="M66 101C52.215 101 41 89.785 41 76S52.215 51 66 51 91 62.215 91 76 79.785 101 66 101M66 61C57.729 61 51 67.729 51 76S57.729 91 66 91 81 84.271 81 76 74.271 61 66 61" fill="#e9de2f" data-fill-palette-color="accent"></path></g><g fill="#e9de2f" data-fill-palette-color="accent"><path d="M51 441C39.972 441 31 432.028 31 421S39.972 401 51 401 71 409.972 71 421 62.028 441 51 441M51 411C45.486 411 41 415.486 41 421S45.486 431 51 431 61 426.514 61 421 56.514 411 51 411" fill="#e9de2f" data-fill-palette-color="accent"></path></g><circle cx="36" cy="136" r="10" fill="#e9de2f" data-fill-palette-color="accent"></circle><circle cx="336" cy="46" r="10" fill="#e9de2f" data-fill-palette-color="accent"></circle><circle cx="466" cy="206" r="10" fill="#e9de2f" data-fill-palette-color="accent"></circle><circle cx="476" cy="396" r="10" fill="#e9de2f" data-fill-palette-color="accent"></circle><circle cx="416" cy="456" r="10" fill="#e9de2f" data-fill-palette-color="accent"></circle><circle cx="116" cy="466" r="10" fill="#e9de2f" data-fill-palette-color="accent"></circle><circle cx="126" cy="46" r="10" fill="#e9de2f" data-fill-palette-color="accent"></circle><circle cx="156" cy="156" r="10" fill="#e9de2f" data-fill-palette-color="accent"></circle><circle cx="156" cy="316" r="10" fill="#e9de2f" data-fill-palette-color="accent"></circle><circle cx="316" cy="276" r="10" fill="#e9de2f" data-fill-palette-color="accent"></circle><circle cx="306" cy="406" r="10" fill="#e9de2f" data-fill-palette-color="accent"></circle></g></g></g></svg></g></svg></g></svg></g><g transform="matrix(1,0,0,1,78.36831170312499,105.0141005931875)"><svg viewBox="0 0 253.56867346874998 29.375425564034977" height="29.375425564034977" width="253.56867346874998"><g transform="matrix(1,0,0,1,0,0)"><svg width="253.56867346874998" viewBox="4.5 -36.75 323.67 37.5" height="29.375425564034977" data-palette-color="#067627"><path d="M19.75-19L19.75-15.6 8.75-15.6 8.75 0 4.5 0 4.5-36 21.75-36 21.75-32.6 8.75-32.6 8.75-19 19.75-19ZM26.5-18L26.5-18Q26.5-23.25 27.6-26.83 28.7-30.4 30.5-32.6 32.3-34.8 34.62-35.77 36.95-36.75 39.45-36.75L39.45-36.75Q41.95-36.75 44.27-35.77 46.6-34.8 48.4-32.6 50.2-30.4 51.3-26.83 52.4-23.25 52.4-18L52.4-18Q52.4-12.75 51.3-9.18 50.2-5.6 48.4-3.4 46.6-1.2 44.25-0.23 41.9 0.75 39.45 0.75L39.45 0.75Q36.95 0.75 34.62-0.23 32.3-1.2 30.5-3.4 28.7-5.6 27.6-9.18 26.5-12.75 26.5-18ZM30.85-18L30.85-18Q30.85-10.4 33-6.45 35.15-2.5 39.45-2.5L39.45-2.5Q43.75-2.5 45.9-6.45 48.05-10.4 48.05-18L48.05-18Q48.05-25.6 45.9-29.55 43.75-33.5 39.45-33.5L39.45-33.5Q35.15-33.5 33-29.55 30.85-25.6 30.85-18ZM59.39-18L59.39-18Q59.39-23.25 60.49-26.83 61.59-30.4 63.39-32.6 65.19-34.8 67.52-35.77 69.84-36.75 72.34-36.75L72.34-36.75Q74.84-36.75 77.17-35.77 79.5-34.8 81.3-32.6 83.09-30.4 84.19-26.83 85.3-23.25 85.3-18L85.3-18Q85.3-12.75 84.19-9.18 83.09-5.6 81.3-3.4 79.5-1.2 77.14-0.23 74.8 0.75 72.34 0.75L72.34 0.75Q69.84 0.75 67.52-0.23 65.19-1.2 63.39-3.4 61.59-5.6 60.49-9.18 59.39-12.75 59.39-18ZM63.74-18L63.74-18Q63.74-10.4 65.89-6.45 68.05-2.5 72.34-2.5L72.34-2.5Q76.64-2.5 78.8-6.45 80.94-10.4 80.94-18L80.94-18Q80.94-25.6 78.8-29.55 76.64-33.5 72.34-33.5L72.34-33.5Q68.05-33.5 65.89-29.55 63.74-25.6 63.74-18ZM93.29-36L99.69-36Q103.24-36 106.22-35.18 109.19-34.35 111.32-32.3 113.44-30.25 114.64-26.78 115.84-23.3 115.84-18L115.84-18Q115.84-12.85 114.67-9.4 113.49-5.95 111.34-3.85 109.19-1.75 106.24-0.88 103.29 0 99.79 0L99.79 0 93.29 0 93.29-36ZM99.64-32.85L97.54-32.85 97.54-3.3 99.74-3.3Q102.79-3.3 105.02-4.08 107.24-4.85 108.69-6.6 110.14-8.35 110.84-11.15 111.54-13.95 111.54-18L111.54-18Q111.54-25.75 108.69-29.3 105.84-32.85 99.64-32.85L99.64-32.85ZM157.09-36L157.09-32.3 148.29-32.3 148.29 0 144.04 0 144.04-32.3 135.34-32.3 135.34-36 157.09-36ZM160.33-18L160.33-18Q160.33-23.25 161.43-26.83 162.53-30.4 164.33-32.6 166.13-34.8 168.46-35.77 170.78-36.75 173.28-36.75L173.28-36.75Q175.78-36.75 178.11-35.77 180.43-34.8 182.23-32.6 184.03-30.4 185.13-26.83 186.23-23.25 186.23-18L186.23-18Q186.23-12.75 185.13-9.18 184.03-5.6 182.23-3.4 180.43-1.2 178.08-0.23 175.73 0.75 173.28 0.75L173.28 0.75Q170.78 0.75 168.46-0.23 166.13-1.2 164.33-3.4 162.53-5.6 161.43-9.18 160.33-12.75 160.33-18ZM164.68-18L164.68-18Q164.68-10.4 166.83-6.45 168.98-2.5 173.28-2.5L173.28-2.5Q177.58-2.5 179.73-6.45 181.88-10.4 181.88-18L181.88-18Q181.88-25.6 179.73-29.55 177.58-33.5 173.28-33.5L173.28-33.5Q168.98-33.5 166.83-29.55 164.68-25.6 164.68-18ZM209.23-36L215.63-36Q219.18-36 222.16-35.18 225.13-34.35 227.25-32.3 229.38-30.25 230.58-26.78 231.78-23.3 231.78-18L231.78-18Q231.78-12.85 230.6-9.4 229.43-5.95 227.28-3.85 225.13-1.75 222.18-0.88 219.23 0 215.73 0L215.73 0 209.23 0 209.23-36ZM215.58-32.85L213.48-32.85 213.48-3.3 215.68-3.3Q218.73-3.3 220.95-4.08 223.18-4.85 224.63-6.6 226.08-8.35 226.78-11.15 227.48-13.95 227.48-18L227.48-18Q227.48-25.75 224.63-29.3 221.78-32.85 215.58-32.85L215.58-32.85ZM238.78-18L238.78-18Q238.78-23.25 239.88-26.83 240.98-30.4 242.78-32.6 244.58-34.8 246.9-35.77 249.23-36.75 251.73-36.75L251.73-36.75Q254.23-36.75 256.55-35.77 258.88-34.8 260.68-32.6 262.48-30.4 263.58-26.83 264.68-23.25 264.68-18L264.68-18Q264.68-12.75 263.58-9.18 262.48-5.6 260.68-3.4 258.88-1.2 256.53-0.23 254.18 0.75 251.73 0.75L251.73 0.75Q249.23 0.75 246.9-0.23 244.58-1.2 242.78-3.4 240.98-5.6 239.88-9.18 238.78-12.75 238.78-18ZM243.13-18L243.13-18Q243.13-10.4 245.28-6.45 247.43-2.5 251.73-2.5L251.73-2.5Q256.03-2.5 258.18-6.45 260.33-10.4 260.33-18L260.33-18Q260.33-25.6 258.18-29.55 256.03-33.5 251.73-33.5L251.73-33.5Q247.43-33.5 245.28-29.55 243.13-25.6 243.13-18ZM271.68-18L271.68-18Q271.68-23.25 272.78-26.83 273.88-30.4 275.68-32.6 277.48-34.8 279.8-35.77 282.13-36.75 284.63-36.75L284.63-36.75Q287.13-36.75 289.45-35.77 291.78-34.8 293.57-32.6 295.38-30.4 296.48-26.83 297.57-23.25 297.57-18L297.57-18Q297.57-12.75 296.48-9.18 295.38-5.6 293.57-3.4 291.78-1.2 289.43-0.23 287.07 0.75 284.63 0.75L284.63 0.75Q282.13 0.75 279.8-0.23 277.48-1.2 275.68-3.4 273.88-5.6 272.78-9.18 271.68-12.75 271.68-18ZM276.03-18L276.03-18Q276.03-10.4 278.18-6.45 280.32-2.5 284.63-2.5L284.63-2.5Q288.93-2.5 291.07-6.45 293.23-10.4 293.23-18L293.23-18Q293.23-25.6 291.07-29.55 288.93-33.5 284.63-33.5L284.63-33.5Q280.32-33.5 278.18-29.55 276.03-25.6 276.03-18ZM328.17 0L323.12 0 315.07-14.1 309.82-14.1 309.82 0 305.57 0 305.57-36 313.07-36Q318.92-36 322.22-33.33 325.52-30.65 325.52-24.9L325.52-24.9Q325.52-22.85 325.02-21.28 324.52-19.7 323.67-18.5 322.82-17.3 321.67-16.45 320.52-15.6 319.22-15.05L319.22-15.05 328.17 0ZM313.02-32.75L309.82-32.75 309.82-17.35 313.17-17.35Q317.07-17.35 319.12-19.23 321.17-21.1 321.17-24.9L321.17-24.9Q321.17-28.7 319.32-30.73 317.47-32.75 313.02-32.75L313.02-32.75Z" opacity="1" transform="matrix(1,0,0,1,0,0)" fill="#067627" class="slogan-text-1" data-fill-palette-color="secondary" id="text-1"></path></svg></g></svg></g></svg></g></svg></g><g></g></svg></g><defs></defs></svg><rect width="395.52" height="129.54681743213757" fill="none" stroke="none" visibility="hidden"></rect></g></svg></g></svg>